<?xml version="1.0" encoding="UTF-8"?>
<svg id="Layer_1" data-name="Layer 1" xmlns="http://www.w3.org/2000/svg" viewBox="0 0 312.9 118.3">
  <defs>
    <style>
      .cls-1 {
        fill: green;
        stroke-width: 0px;
      }
    </style>
  </defs>
  <path class="cls-1" d="m.26,22.73c0-6.64,5.38-12.03,12.03-12.03,6.64,0,12.03,5.38,12.03,12.03s-5.38,12.03-12.03,12.03c-6.64,0-12.03-5.38-12.03-12.03Z"/>
  <path class="cls-1" d="m83.16,91.89l-11.03-11.03h0c4.53-4.53,4.53-11.88,0-16.41l-18.72-18.72c-.35-.35-.35-.92,0-1.27h0c.35-.35.92-.35,1.27,0l14.77,14.77c1.99,1.99,5.21,1.99,7.2,0h0c1.99-1.99,1.99-5.21,0-7.2l-24.89-24.89c-1.03-1.03-2.43-1.61-3.88-1.61h-16.03c-1.46,0-2.85.58-3.88,1.61l-10.26,10.26c-2.14,2.14-2.14,5.62,0,7.76l7.86,7.86-13.4,13.4c-1.99,1.99-1.99,5.22,0,7.21h0c1.99,1.99,5.22,1.99,7.21,0l13.4-13.4,7.91,7.91L1.96,106.89c-2.61,2.61-2.61,6.84,0,9.45h0c2.61,2.61,6.84,2.61,9.45,0l38.74-38.74,28.4,28.4c2.61,2.61,6.85,2.61,9.46,0l4.64-4.64-9.48-9.47Z"/>
  <circle class="cls-1" cx="91.29" cy="12.03" r="12.03"/>
  <circle class="cls-1" cx="274.6" cy="45.61" r="10.25"/>
  <path class="cls-1" d="m162.69,47.2v-16.18c0-3.03,2.46-5.49,5.49-5.49h22.38c1.46,0,2.85.58,3.88,1.61l30.46,30.46h52.25s3.62,0,3.62,0c1.46,0,2.85.58,3.88,1.61l20.71,20.71c1.02,1.02,1.02,2.68,0,3.7h0c-1.02,1.02-2.68,1.02-3.7,0l-10.54-10.54c-.35-.35-.92-.35-1.27,0h0c-.35.35-.35.92,0,1.27l15.9,15.9h2.88c2.36,0,4.27,1.91,4.27,4.27h0c0,2.36-1.91,4.27-4.27,4.27h-6.91s-8.83-8.83-8.83-8.83c-.35-.35-.92-.35-1.27,0h0c-.35.35-.35.92,0,1.27l12.29,12.29c1.74,1.74,1.74,4.55,0,6.29h0c-1.74,1.74-4.55,1.74-6.29,0l-41.32-41.32h-34.64l-24.33-24.33c-.35-.35-.92-.35-1.27,0h0c-.35.35-.35.92,0,1.27l10.56,10.56c4.53,4.53,4.53,11.87,0,16.4h0s34.66,34.59,34.66,34.59c2.58,2.58,2.58,6.78,0,9.36h0c-2.58,2.58-6.78,2.58-9.36,0l-41.44-41.37-15.62,15.62,8.97,8.97c2.62,2.62,2.62,6.87,0,9.49h0c-2.62,2.62-6.87,2.62-9.49,0l-8.97-8.97-7.53-7.53c-1.08-1.08-1.08-2.82,0-3.9l23.16-23.16-11.07-11.07-12.85,12.85c-2.24,2.24-5.86,2.24-8.1,0l-23.11-23.12c-.35-.35-.92-.35-1.27,0h0c-.35.35-.35.92,0,1.27l10.56,10.56c4.53,4.53,4.53,11.87,0,16.4h0s34.66,34.59,34.66,34.59c2.58,2.58,2.58,6.78,0,9.36h0c-2.58,2.58-6.78,2.58-9.36,0l-41.44-41.37-15.62,15.62,8.97,8.97c2.62,2.62,2.62,6.87,0,9.49h0c-2.62,2.62-6.87,2.62-9.49,0l-8.97-8.97-7.53-7.53c-1.08-1.08-1.08-2.82,0-3.9l23.16-23.16-11.07-11.07-13.3,13.3c-1.99,1.99-5.21,1.99-7.2,0l-.04-.04c-1.99-1.99-1.99-5.21,0-7.2l13.3-13.3v-16.18c0-3.03,2.46-5.49,5.49-5.49h22.38c1.46,0,2.85.58,3.88,1.61l30.46,30.46,9.24-10.4Z"/>
  <circle class="cls-1" cx="182.64" cy="12.03" r="12.03"/>
</svg>